<?xml version="1.0" ?><!DOCTYPE svg  PUBLIC '-//W3C//DTD SVG 1.1//EN'  'http://www.w3.org/Graphics/SVG/1.1/DTD/svg11.dtd'><svg enable-background="new 0 0 128 128" id="Layer_1" version="1.1" viewBox="0 0 128 128" xml:space="preserve" xmlns="http://www.w3.org/2000/svg" xmlns:xlink="http://www.w3.org/1999/xlink"><rect fill="#414042" height="31" width="16" x="55" y="77"/><rect fill="#4D4D4F" height="31" width="16" x="58" y="77"/><path d="M107,94H15c-2.21,0-4-1.79-4-4V24c0-2.21,1.79-4,4-4h92c2.21,0,4,1.79,4,4v66C111,92.21,109.21,94,107,94z"/><path d="M112,94H20c-2.21,0-4-1.79-4-4V24c0-2.21,1.79-4,4-4h92c2.21,0,4,1.79,4,4v66C116,92.21,114.21,94,112,94z" fill="#414042"/><rect fill="#E6E7E8" height="64" width="90" x="21" y="25"/><rect fill="#D1D3D4" height="64" width="3" x="108" y="25"/><path d="M47,110h33c0.55,0,1-0.45,1-1v-1c0-0.55-0.45-1-1-1H47c-0.55,0-1,0.45-1,1v1C46,109.55,46.45,110,47,110z"/><path d="M50,110h33c0.55,0,1-0.45,1-1v-1c0-0.55-0.45-1-1-1H50c-0.55,0-1,0.45-1,1v1C49,109.55,49.45,110,50,110z" fill="#414042"/><line fill="none" stroke="#D1D3D4" stroke-linecap="square" stroke-miterlimit="10" stroke-width="2" x1="32.16" x2="102" y1="76.5" y2="76.5"/><line fill="none" stroke="#D1D3D4" stroke-linecap="square" stroke-miterlimit="10" stroke-width="2" x1="32.16" x2="102" y1="72.5" y2="72.5"/><line fill="none" stroke="#D1D3D4" stroke-linecap="square" stroke-miterlimit="10" stroke-width="2" x1="32.16" x2="102" y1="68.5" y2="68.5"/><line fill="none" stroke="#D1D3D4" stroke-linecap="square" stroke-miterlimit="10" stroke-width="2" x1="32.16" x2="102" y1="64.5" y2="64.5"/><line fill="none" stroke="#D1D3D4" stroke-linecap="square" stroke-miterlimit="10" stroke-width="2" x1="32.16" x2="102" y1="60.5" y2="60.5"/><line fill="none" stroke="#D1D3D4" stroke-linecap="square" stroke-miterlimit="10" stroke-width="2" x1="32.16" x2="102" y1="56.5" y2="56.5"/><line fill="none" stroke="#D1D3D4" stroke-linecap="square" stroke-miterlimit="10" stroke-width="2" x1="32.16" x2="102" y1="52.5" y2="52.5"/><line fill="none" stroke="#D1D3D4" stroke-linecap="square" stroke-miterlimit="10" stroke-width="2" x1="32.16" x2="102" y1="48.5" y2="48.5"/><line fill="none" stroke="#D1D3D4" stroke-linecap="square" stroke-miterlimit="10" stroke-width="2" x1="32.16" x2="102" y1="44.5" y2="44.5"/><line fill="none" stroke="#D1D3D4" stroke-linecap="square" stroke-miterlimit="10" stroke-width="2" x1="32.16" x2="102" y1="40.5" y2="40.5"/><line fill="none" stroke="#D1D3D4" stroke-linecap="square" stroke-miterlimit="10" stroke-width="2" x1="32.16" x2="102" y1="36.5" y2="36.5"/><rect fill="#D60080" height="32" width="14" x="57" y="49"/><rect fill="#EEDC00" height="22" width="14" x="37" y="59"/><rect fill="#0092C8" height="44" width="14" x="78" y="37"/><rect fill="#EC008C" height="32" width="14" x="59" y="49"/><rect fill="#FFF200" height="22" width="14" x="39" y="59"/><rect fill="#00AEEF" height="44" width="14" x="80" y="37"/><line fill="none" stroke="#58595B" stroke-linecap="square" stroke-miterlimit="10" stroke-width="2" x1="28" x2="102" y1="81" y2="81"/><line fill="none" stroke="#58595B" stroke-linecap="square" stroke-miterlimit="10" stroke-width="2" x1="28" x2="30.5" y1="76.5" y2="76.5"/><line fill="none" stroke="#58595B" stroke-linecap="square" stroke-miterlimit="10" stroke-width="2" x1="28" x2="30.5" y1="72.5" y2="72.5"/><line fill="none" stroke="#58595B" stroke-linecap="square" stroke-miterlimit="10" stroke-width="2" x1="28" x2="30.5" y1="68.5" y2="68.5"/><line fill="none" stroke="#58595B" stroke-linecap="square" stroke-miterlimit="10" stroke-width="2" x1="28" x2="30.5" y1="64.5" y2="64.5"/><line fill="none" stroke="#58595B" stroke-linecap="square" stroke-miterlimit="10" stroke-width="2" x1="28" x2="30.5" y1="60.5" y2="60.5"/><line fill="none" stroke="#58595B" stroke-linecap="square" stroke-miterlimit="10" stroke-width="2" x1="28" x2="30.5" y1="56.5" y2="56.5"/><line fill="none" stroke="#58595B" stroke-linecap="square" stroke-miterlimit="10" stroke-width="2" x1="28" x2="30.5" y1="52.5" y2="52.5"/><line fill="none" stroke="#58595B" stroke-linecap="square" stroke-miterlimit="10" stroke-width="2" x1="28" x2="30.5" y1="48.5" y2="48.5"/><line fill="none" stroke="#58595B" stroke-linecap="square" stroke-miterlimit="10" stroke-width="2" x1="28" x2="30.5" y1="44.5" y2="44.5"/><line fill="none" stroke="#58595B" stroke-linecap="square" stroke-miterlimit="10" stroke-width="2" x1="28" x2="30.5" y1="40.5" y2="40.5"/><line fill="none" stroke="#58595B" stroke-linecap="square" stroke-miterlimit="10" stroke-width="2" x1="28" x2="30.5" y1="36.5" y2="36.5"/></svg>